<svg xmlns="http://www.w3.org/2000/svg" viewBox="0 0 120 120">
  <defs>
    <linearGradient id="g" x1="12%" x2="88%" y1="20%" y2="86%">
      <stop offset="0%" stop-color="#5DA9FF" />
      <stop offset="48%" stop-color="#3778FF" />
      <stop offset="100%" stop-color="#1D49FF" />
    </linearGradient>
  </defs>
  <path
    fill="url(#g)"
    d="M94.5 21.6c-9.4-5.1-21-1.6-34.6 10.3-10.9 9.6-19.8 20.1-26.7 31.5-6.3 10.2-9.7 19.4-10.1 27.5-.4 8.8 2.7 15.1 9.2 18.7 6.5 3.5 13.5 2.8 21.1-2.2 4.8-3.1 8.6-7 11.3-11.6 1.6-2.6 2.8-5.9 3.5-9.7 1.6-8.8-1.1-14.5-8.3-17.2 1.6-3 5.4-8 11.5-15 10.4-11.9 19.4-19.5 26.7-22.7 7.3-3.2 13.7-2.8 19 1.1 2.4 1.7 4.5 3.9 6.2 6.8 4 6.4 4 13.3 0 20.6-4.9 8.7-16 20.5-33.4 35.2 13.7 1.6 25.4-1.8 35-10.2 14.6-12.7 17.5-31.2 8.6-55.5-4.6-12.4-12-21-22.1-25.8Z"
  />
</svg>
