<svg xmlns="http://www.w3.org/2000/svg" viewBox="0 0 420 360">
  <defs>
    <linearGradient id="kleverGradient" x1="10%" x2="90%" y1="15%" y2="90%">
      <stop offset="0%" stop-color="#67b3ff" />
      <stop offset="45%" stop-color="#3f82ff" />
      <stop offset="100%" stop-color="#1a47ff" />
    </linearGradient>
  </defs>
  <path
    fill="url(#kleverGradient)"
    d="M318.6 24.1c-33.7-18.2-75.4-5.8-124.9 37.6-39.8 34.9-72.3 72.6-97.6 114.1C73 211.9 60.6 247 59.4 278.2c-1.5 32 9.7 55.3 33.7 68.8 23.7 12.9 49 10.3 76.6-7.9 17.5-11.6 31.4-26 41.7-43.3 6-9.7 10.4-22 13.1-36.3 5.7-33-4.2-54-30.7-64 5.9-11.1 19.8-29.7 41.8-55.6 37.8-44.2 70.7-72.3 97.5-84.4 26.5-12 49.8-10.3 69.2 3.7 8.7 6.2 16.2 14.6 22.3 25.3 14.2 23.7 14.2 49.3 0 76.6-17.6 32.1-57.9 75.8-120.9 130.4 49.7 6 92.4-6.6 127.4-37.6 53.1-46.7 63.7-114.9 31.3-204.3-16.8-45.7-43.6-77.6-80.8-95.1Z"
  />
</svg>
